{
  "accessors": [
    {
      "bufferView": 2,
      "componentType": 5126,
      "count": 4072,
      "max": [
        21.3902645111084,
        -1.1474294662475586,
        30.394798278808594
      ],
      "min": [
        -21.327547073364258,
        -55.69701385498047,
        -45.73719024658203
      ],
      "type": "VEC3"
    },
    {
      "bufferView": 2,
      "byteOffset": 48864,
      "componentType": 5126,
      "count": 4072,
      "max": [
        0.9998271465301514,
        0.9999993443489075,
        0.9999595880508423
      ],
      "min": [
        -0.9998271465301514,
        -0.9998596906661987,
        -0.9427819848060608
      ],
      "type": "VEC3"
    },
    {
      "bufferView": 1,
      "componentType": 5126,
      "count": 4072,
      "max": [
        0.9741130471229553,
        0.9726666808128357
      ],
      "min": [
        0.047130241990089417,
        0.02972819097340107
      ],
      "type": "VEC2"
    },
    {
      "bufferView": 0,
      "componentType": 5125,
      "count": 22704,
      "type": "SCALAR"
    },
    {
      "bufferView": 2,
      "byteOffset": 97728,
      "componentType": 5126,
      "count": 2864,
      "max": [
        18.21807861328125,
        -3.8647804260253906,
        19.1295223236084
      ],
      "min": [
        -18.155363082885742,
        -19.15739631652832,
        -3.7618141174316406
      ],
      "type": "VEC3"
    },
    {
      "bufferView": 2,
      "byteOffset": 132096,
      "componentType": 5126,
      "count": 2864,
      "max": [
        0.9991531372070313,
        0.9981079697608948,
        0.9982208609580994
      ],
      "min": [
        -0.9991531372070313,
        -0.9997467994689941,
        -0.993521511554718
      ],
      "type": "VEC3"
    },
    {
      "bufferView": 1,
      "byteOffset": 32576,
      "componentType": 5126,
      "count": 2864,
      "max": [
        1.0,
        1.0
      ],
      "min": [
        1.0,
        1.0
      ],
      "type": "VEC2"
    },
    {
      "bufferView": 0,
      "byteOffset": 90816,
      "componentType": 5125,
      "count": 14208,
      "type": "SCALAR"
    },
    {
      "bufferView": 2,
      "byteOffset": 166464,
      "componentType": 5126,
      "count": 626,
      "max": [
        17.08545684814453,
        -5.085877895355225,
        16.360780715942383
      ],
      "min": [
        -17.022737503051758,
        -18.026241302490234,
        -3.2250301837921143
      ],
      "type": "VEC3"
    },
    {
      "bufferView": 2,
      "byteOffset": 173976,
      "componentType": 5126,
      "count": 626,
      "max": [
        0.9144353866577148,
        0.9984592199325562,
        0.4123194217681885
      ],
      "min": [
        -0.9144359827041626,
        0.4005142152309418,
        -0.13184648752212524
      ],
      "type": "VEC3"
    },
    {
      "bufferView": 3,
      "componentType": 5126,
      "count": 626,
      "max": [
        0.999947190284729,
        0.9156814813613892,
        0.06038539111614227,
        1.0
      ],
      "min": [
        -0.999947190284729,
        -0.02496763877570629,
        -0.1720205843448639,
        -1.0
      ],
      "type": "VEC4"
    },
    {
      "bufferView": 1,
      "byteOffset": 55488,
      "componentType": 5126,
      "count": 626,
      "max": [
        0.8340154886245728,
        0.9697213768959045
      ],
      "min": [
        0.14472967386245728,
        0.03027862310409546
      ],
      "type": "VEC2"
    },
    {
      "bufferView": 1,
      "byteOffset": 60496,
      "componentType": 5126,
      "count": 626,
      "max": [
        0.8340154886245728,
        0.9697213768959045
      ],
      "min": [
        0.14472967386245728,
        0.03027862310409546
      ],
      "type": "VEC2"
    },
    {
      "bufferView": 1,
      "byteOffset": 65504,
      "componentType": 5126,
      "count": 626,
      "max": [
        0.8340154886245728,
        0.9697213768959045
      ],
      "min": [
        0.14472967386245728,
        0.03027862310409546
      ],
      "type": "VEC2"
    },
    {
      "bufferView": 0,
      "byteOffset": 147648,
      "componentType": 5125,
      "count": 3456,
      "type": "SCALAR"
    },
    {
      "bufferView": 2,
      "byteOffset": 181488,
      "componentType": 5126,
      "count": 65534,
      "max": [
        21.862401962280273,
        -1.0944716930389404,
        30.884998321533203
      ],
      "min": [
        -21.74052619934082,
        -56.11666488647461,
        -46.098751068115234
      ],
      "type": "VEC3"
    },
    {
      "bufferView": 2,
      "byteOffset": 967896,
      "componentType": 5126,
      "count": 65534,
      "max": [
        0.9999512434005737,
        0.999991238117218,
        0.9999997615814209
      ],
      "min": [
        -0.9995706081390381,
        -0.9999804496765137,
        -0.9999856352806091
      ],
      "type": "VEC3"
    },
    {
      "bufferView": 1,
      "byteOffset": 70512,
      "componentType": 5126,
      "count": 65534,
      "max": [
        0.5,
        0.5
      ],
      "min": [
        0.0,
        0.0
      ],
      "type": "VEC2"
    },
    {
      "bufferView": 1,
      "byteOffset": 594784,
      "componentType": 5126,
      "count": 65534,
      "max": [
        0.5,
        0.5
      ],
      "min": [
        0.0,
        0.0
      ],
      "type": "VEC2"
    },
    {
      "bufferView": 0,
      "byteOffset": 161472,
      "componentType": 5125,
      "count": 99195,
      "type": "SCALAR"
    },
    {
      "bufferView": 2,
      "byteOffset": 1754304,
      "componentType": 5126,
      "count": 65532,
      "max": [
        21.862401962280273,
        -1.0944716930389404,
        30.912540435791016
      ],
      "min": [
        -21.799684524536133,
        -56.124027252197266,
        -46.08264923095703
      ],
      "type": "VEC3"
    },
    {
      "bufferView": 2,
      "byteOffset": 2540688,
      "componentType": 5126,
      "count": 65532,
      "max": [
        0.9999884366989136,
        1.0,
        0.9999998211860657
      ],
      "min": [
        -0.9999512434005737,
        -0.999993622303009,
        -0.9999635219573975
      ],
      "type": "VEC3"
    },
    {
      "bufferView": 1,
      "byteOffset": 1119056,
      "componentType": 5126,
      "count": 65532,
      "max": [
        0.5,
        0.5
      ],
      "min": [
        0.0,
        0.0
      ],
      "type": "VEC2"
    },
    {
      "bufferView": 1,
      "byteOffset": 1643312,
      "componentType": 5126,
      "count": 65532,
      "max": [
        0.5,
        0.5
      ],
      "min": [
        0.0,
        0.0
      ],
      "type": "VEC2"
    },
    {
      "bufferView": 0,
      "byteOffset": 558252,
      "componentType": 5125,
      "count": 110037,
      "type": "SCALAR"
    },
    {
      "bufferView": 2,
      "byteOffset": 3327072,
      "componentType": 5126,
      "count": 22913,
      "max": [
        21.85272979736328,
        -1.1731191873550415,
        30.22305679321289
      ],
      "min": [
        0.03104085847735405,
        -55.37872314453125,
        -46.098751068115234
      ],
      "type": "VEC3"
    },
    {
      "bufferView": 2,
      "byteOffset": 3602028,
      "componentType": 5126,
      "count": 22913,
      "max": [
        0.9999077916145325,
        0.9997304677963257,
        0.9991841912269592
      ],
      "min": [
        -0.9999884963035583,
        -0.9999353885650635,
        -0.9998409152030945
      ],
      "type": "VEC3"
    },
    {
      "bufferView": 1,
      "byteOffset": 2167568,
      "componentType": 5126,
      "count": 22913,
      "max": [
        0.5,
        0.5
      ],
      "min": [
        0.0,
        0.0
      ],
      "type": "VEC2"
    },
    {
      "bufferView": 1,
      "byteOffset": 2350872,
      "componentType": 5126,
      "count": 22913,
      "max": [
        0.5,
        0.5
      ],
      "min": [
        0.0,
        0.0
      ],
      "type": "VEC2"
    },
    {
      "bufferView": 0,
      "byteOffset": 998400,
      "componentType": 5125,
      "count": 38952,
      "type": "SCALAR"
    },
    {
      "bufferView": 2,
      "byteOffset": 3876984,
      "componentType": 5126,
      "count": 162,
      "max": [
        17.081296920776367,
        -4.865538597106934,
        16.285730361938477
      ],
      "min": [
        -17.01858139038086,
        -17.771474838256836,
        -3.2137374877929688
      ],
      "type": "VEC3"
    },
    {
      "bufferView": 2,
      "byteOffset": 3878928,
      "componentType": 5126,
      "count": 162,
      "max": [
        0.9278146624565125,
        0.9954715967178345,
        0.3766658902168274
      ],
      "min": [
        -0.9278152585029602,
        0.3730147182941437,
        -0.1469520777463913
      ],
      "type": "VEC3"
    },
    {
      "bufferView": 1,
      "byteOffset": 2534176,
      "componentType": 5126,
      "count": 162,
      "max": [
        0.9268048405647278,
        0.9616897702217102
      ],
      "min": [
        0.060947805643081665,
        0.07696860283613205
      ],
      "type": "VEC2"
    },
    {
      "bufferView": 0,
      "byteOffset": 1154208,
      "componentType": 5125,
      "count": 768,
      "type": "SCALAR"
    }
  ],
  "asset": {
    "extras": {
      "author": "folksy_wig (https://sketchfab.com/folksy_wig)",
      "license": "CC-BY-NC-SA-4.0 (http://creativecommons.org/licenses/by-nc-sa/4.0/)",
      "source": "https://sketchfab.com/3d-models/spider-man-symbiote-57f7052d35474273b070896036f5947d",
      "title": "Spider-Man Symbiote"
    },
    "generator": "Sketchfab-17.3.0",
    "version": "2.0"
  },
  "bufferViews": [
    {
      "buffer": 0,
      "byteLength": 1157280,
      "name": "floatBufferViews",
      "target": 34963
    },
    {
      "buffer": 0,
      "byteLength": 2535472,
      "byteOffset": 1157280,
      "byteStride": 8,
      "name": "floatBufferViews",
      "target": 34962
    },
    {
      "buffer": 0,
      "byteLength": 3880872,
      "byteOffset": 3692752,
      "byteStride": 12,
      "name": "floatBufferViews",
      "target": 34962
    },
    {
      "buffer": 0,
      "byteLength": 10016,
      "byteOffset": 7573624,
      "byteStride": 16,
      "name": "floatBufferViews",
      "target": 34962
    }
  ],
  "buffers": [
    {
      "byteLength": 7583640,
      "uri": "scene.bin"
    }
  ],
  "extensionsUsed": [
    "KHR_materials_specular",
    "KHR_materials_emissive_strength"
  ],
  "images": [
    {
      "uri": "textures/material_metallicRoughness.png"
    },
    {
      "uri": "textures/material_specularf0.png"
    },
    {
      "uri": "textures/EyeCloth_baseColor.png"
    },
    {
      "uri": "textures/EyeCloth_normal.png"
    }
  ],
  "materials": [
    {
      "doubleSided": true,
      "extensions": {
        "KHR_materials_specular": {
          "specularColorFactor": [
            1.0,
            1.0,
            1.0
          ],
          "specularFactor": 0.1473337391,
          "specularTexture": {
            "index": 1
          }
        }
      },
      "name": "material",
      "occlusionTexture": {
        "index": 0
      },
      "pbrMetallicRoughness": {
        "baseColorFactor": [
          0.0,
          0.0,
          0.0,
          1.0
        ],
        "metallicFactor": 0.1109175752,
        "metallicRoughnessTexture": {
          "index": 0
        }
      }
    },
    {
      "doubleSided": true,
      "extensions": {
        "KHR_materials_specular": {
          "specularColorFactor": [
            1.0,
            1.0,
            1.0
          ],
          "specularFactor": 1.0
        }
      },
      "name": "Black",
      "pbrMetallicRoughness": {
        "baseColorFactor": [
          0.088456139640856,
          0.088456139640856,
          0.088456139640856,
          1.0
        ],
        "roughnessFactor": 0.21399999999999997
      }
    },
    {
      "doubleSided": true,
      "extensions": {
        "KHR_materials_emissive_strength": {
          "emissiveStrength": 10.0
        }
      },
      "name": "EyeCloth",
      "normalTexture": {
        "index": 3
      },
      "pbrMetallicRoughness": {
        "baseColorFactor": [
          0.6949517297168833,
          0.6949517297168833,
          0.6949517297168833,
          1.0
        ],
        "baseColorTexture": {
          "index": 2
        },
        "metallicFactor": 0.0,
        "roughnessFactor": 0.894809991
      }
    },
    {
      "doubleSided": true,
      "extensions": {
        "KHR_materials_specular": {
          "specularColorFactor": [
            1.0,
            1.0,
            1.0
          ],
          "specularFactor": 0.3233451981
        }
      },
      "name": "material_3",
      "pbrMetallicRoughness": {
        "baseColorFactor": [
          0.023288221647147715,
          0.023288221647147715,
          0.023288221647147715,
          1.0
        ],
        "metallicFactor": 0.8695876569,
        "roughnessFactor": 0.4460190971
      }
    },
    {
      "alphaMode": "BLEND",
      "doubleSided": true,
      "extensions": {
        "KHR_materials_specular": {
          "specularColorFactor": [
            1.0,
            1.0,
            1.0
          ],
          "specularFactor": 1.0
        }
      },
      "name": "Glass",
      "pbrMetallicRoughness": {
        "baseColorFactor": [
          0.0020247017726943398,
          0.0029027211244194227,
          0.003119811652553282,
          0.9265150257157134
        ],
        "metallicFactor": 0.0,
        "roughnessFactor": 0.0
      }
    }
  ],
  "meshes": [
    {
      "name": "BlackSpidey001_Red_0",
      "primitives": [
        {
          "attributes": {
            "NORMAL": 1,
            "POSITION": 0,
            "TEXCOORD_0": 2
          },
          "indices": 3,
          "material": 0,
          "mode": 4
        }
      ]
    },
    {
      "name": "BlackSpidey001_Black_0",
      "primitives": [
        {
          "attributes": {
            "NORMAL": 5,
            "POSITION": 4,
            "TEXCOORD_0": 6
          },
          "indices": 7,
          "material": 1,
          "mode": 4
        }
      ]
    },
    {
      "name": "BlackSpidey001_EyeCloth_0",
      "primitives": [
        {
          "attributes": {
            "NORMAL": 9,
            "POSITION": 8,
            "TANGENT": 10,
            "TEXCOORD_0": 11,
            "TEXCOORD_1": 12,
            "TEXCOORD_2": 13
          },
          "indices": 14,
          "material": 2,
          "mode": 4
        }
      ]
    },
    {
      "name": "BlackSpidey001_Web_0",
      "primitives": [
        {
          "attributes": {
            "NORMAL": 16,
            "POSITION": 15,
            "TEXCOORD_0": 17,
            "TEXCOORD_1": 18
          },
          "indices": 19,
          "material": 3,
          "mode": 4
        }
      ]
    },
    {
      "name": "BlackSpidey001_Web_0",
      "primitives": [
        {
          "attributes": {
            "NORMAL": 21,
            "POSITION": 20,
            "TEXCOORD_0": 22,
            "TEXCOORD_1": 23
          },
          "indices": 24,
          "material": 3,
          "mode": 4
        }
      ]
    },
    {
      "name": "BlackSpidey001_Web_0",
      "primitives": [
        {
          "attributes": {
            "NORMAL": 26,
            "POSITION": 25,
            "TEXCOORD_0": 27,
            "TEXCOORD_1": 28
          },
          "indices": 29,
          "material": 3,
          "mode": 4
        }
      ]
    },
    {
      "name": "BlackSpidey001_Glass_0",
      "primitives": [
        {
          "attributes": {
            "NORMAL": 31,
            "POSITION": 30,
            "TEXCOORD_0": 32
          },
          "indices": 33,
          "material": 4,
          "mode": 4
        }
      ]
    }
  ],
  "nodes": [
    {
      "children": [
        1
      ],
      "matrix": [
        0.9999442100524902,
        0.010428746230900288,
        0.0016961096553131962,
        0.0,
        -5.700000116348747e-08,
        -0.16052336990833305,
        0.9870320558547974,
        0.0,
        0.010565772652626038,
        -0.9869769215583801,
        -0.16051441431045554,
        0.0,
        0.0,
        0.0,
        0.0,
        1.0
      ],
      "name": "Sketchfab_model"
    },
    {
      "children": [
        2
      ],
      "matrix": [
        1.0,
        0.0,
        0.0,
        0.0,
        0.0,
        -1.0,
        0.0,
        0.0,
        0.0,
        0.0,
        -1.0,
        0.0,
        0.0,
        0.0,
        0.0,
        1.0
      ],
      "name": "61791ab4e0e94e0bbfd6212b84a6e797.fbx"
    },
    {
      "children": [
        3
      ],
      "name": "RootNode"
    },
    {
      "children": [
        4,
        5,
        6,
        7,
        8,
        9,
        10
      ],
      "matrix": [
        -0.9999999999999964,
        8.742277669594046e-08,
        3.308722450212111e-24,
        0.0,
        -8.511118379916982e-08,
        -0.9735584594297348,
        -0.2284380136334462,
        0.0,
        -1.9970685454740963e-08,
        -0.22843801363344532,
        0.9735584594297383,
        0.0,
        0.03107762336730957,
        -10.700479507446289,
        41.85356140136719,
        1.0
      ],
      "name": "BlackSpidey001"
    },
    {
      "mesh": 0,
      "name": "BlackSpidey001_Red_0"
    },
    {
      "mesh": 1,
      "name": "BlackSpidey001_Black_0"
    },
    {
      "mesh": 2,
      "name": "BlackSpidey001_EyeCloth_0"
    },
    {
      "mesh": 3,
      "name": "BlackSpidey001_Web_0"
    },
    {
      "mesh": 4,
      "name": "BlackSpidey001_Web_0"
    },
    {
      "mesh": 5,
      "name": "BlackSpidey001_Web_0"
    },
    {
      "mesh": 6,
      "name": "BlackSpidey001_Glass_0"
    }
  ],
  "samplers": [
    {
      "magFilter": 9729,
      "minFilter": 9987,
      "wrapS": 10497,
      "wrapT": 10497
    }
  ],
  "scene": 0,
  "scenes": [
    {
      "name": "Sketchfab_Scene",
      "nodes": [
        0
      ]
    }
  ],
  "textures": [
    {
      "sampler": 0,
      "source": 0
    },
    {
      "sampler": 0,
      "source": 1
    },
    {
      "sampler": 0,
      "source": 2
    },
    {
      "sampler": 0,
      "source": 3
    }
  ]
}
